<?xml version="1.0" encoding="UTF-8"?>
<svg version="1.1" xmlns="http://www.w3.org/2000/svg" width="500" height="500" fill="none">
  <path d="M0 0 C33.9846419 1.27950221 62.82364134 16.25485301 85.86376953 41.09130859 C107.91444015 66.12094305 115.5342619 98.3572953 113.5625 131.01953125 C110.27252785 162.15827405 93.94414504 190.82661316 69.73095703 210.50830078 C50.93417302 225.00672765 27.20106382 235.36428833 3.1875 235.08203125 C2.45144531 235.07751953 1.71539062 235.07300781 0.95703125 235.06835938 C-0.84118158 235.05668267 -2.63935197 235.03875136 -4.4375 235.01953125 C-4.4375 233.36953125 -4.4375 231.71953125 -4.4375 230.01953125 C-5.50484375 229.94476563 -6.5721875 229.87 -7.671875 229.79296875 C-25.57800109 228.30808041 -42.16704509 223.61518371 -57.4375 214.01953125 C-58.02192871 213.65375977 -58.60635742 213.28798828 -59.20849609 212.91113281 C-83.61933852 197.29196055 -99.65170444 173.74168211 -107.4375 146.01953125 C-107.7571875 144.9109375 -108.076875 143.80234375 -108.40625 142.66015625 C-115.56648316 113.35623905 -108.85217678 83.28893392 -93.8125 57.765625 C-90.52526904 52.41979287 -86.56881278 47.73538924 -82.4375 43.01953125 C-81.47650391 41.76849609 -81.47650391 41.76849609 -80.49609375 40.4921875 C-64.18232344 20.89708958 -37.05455746 9.64307008 -12.4375 6.01953125 C-9.70530773 5.83895532 -7.17368945 5.85200945 -4.4375 6.01953125 C-4.458125 5.21515625 -4.47875 4.41078125 -4.5 3.58203125 C-4.40389124 -0.358428 -4.05719392 0.02305224 0 0 Z" fill="#01213E" transform="translate(248.4375,131.98046875)"/>
  <path d="M0 0 C33.9846419 1.27950221 62.82364134 16.25485301 85.86376953 41.09130859 C107.91444015 66.12094305 115.5342619 98.3572953 113.5625 131.01953125 C110.27252785 162.15827405 93.94414504 190.82661316 69.73095703 210.50830078 C50.93417302 225.00672765 27.20106382 235.36428833 3.1875 235.08203125 C2.45144531 235.07751953 1.71539062 235.07300781 0.95703125 235.06835938 C-0.84118158 235.05668267 -2.63935197 235.03875136 -4.4375 235.01953125 C-4.4375 233.36953125 -4.4375 231.71953125 -4.4375 230.01953125 C-5.50484375 229.94476563 -6.5721875 229.87 -7.671875 229.79296875 C-25.57800109 228.30808041 -42.16704509 223.61518371 -57.4375 214.01953125 C-58.02192871 213.65375977 -58.60635742 213.28798828 -59.20849609 212.91113281 C-83.61933852 197.29196055 -99.65170444 173.74168211 -107.4375 146.01953125 C-107.7571875 144.9109375 -108.076875 143.80234375 -108.40625 142.66015625 C-115.56648316 113.35623905 -108.85217678 83.28893392 -93.8125 57.765625 C-90.52526904 52.41979287 -86.56881278 47.73538924 -82.4375 43.01953125 C-81.47650391 41.76849609 -81.47650391 41.76849609 -80.49609375 40.4921875 C-64.18232344 20.89708958 -37.05455746 9.64307008 -12.4375 6.01953125 C-9.70530773 5.83895532 -7.17368945 5.85200945 -4.4375 6.01953125 C-4.458125 5.21515625 -4.47875 4.41078125 -4.5 3.58203125 C-4.40389124 -0.358428 -4.05719392 0.02305224 0 0 Z" fill="#8B8E3A" transform="translate(248.4375,131.98046875)"/>
  <path d="M0 0 C10.81319204 5.77484714 16.28297453 16.87010656 20.1484375 28.03515625 C24.32069639 42.52200902 21.53481464 59.66674128 14.69140625 72.83984375 C10.7644466 79.16028013 5.91166565 84.1140802 -1.328125 86.52734375 C-13.66337865 89.00967034 -24.34643748 86.5588015 -34.8515625 80.03515625 C-35.57859375 80.83179688 -35.57859375 80.83179688 -36.3203125 81.64453125 C-43.22022676 88.91597936 -49.79320913 93.06361135 -60.00854492 93.37890625 C-69.57294696 93.50315708 -76.41153012 92.79914577 -83.86328125 86.2734375 C-93.67628217 76.13127931 -95.33655132 62.09243335 -95.35571289 48.61621094 C-95.05373125 34.46419989 -89.61505141 21.70926289 -79.4765625 11.6875 C-71.80517499 4.71686424 -71.80517499 4.71686424 -64.94921875 4.81640625 C-60.86266568 5.24256448 -57.97737611 7.021924 -54.9765625 9.72265625 C-53.24082468 13.29056178 -53.08512427 16.22092851 -53.8515625 20.03515625 C-55.23208308 23.47413162 -56.78121389 26.76949615 -58.44140625 30.08203125 C-61.70752923 36.9218899 -62.21557045 45.24630225 -60.1328125 52.55859375 C-58.11694086 56.93173465 -56.12654232 58.69561505 -51.8515625 61.03515625 C-52.1403125 60.07996094 -52.4290625 59.12476563 -52.7265625 58.140625 C-58.01876256 40.00165638 -58.01876256 40.00165638 -54.3515625 31.59765625 C-49.02061692 26.13343703 -43.77384278 24.61298947 -36.24609375 24.40625 C-32.51516884 25.38615034 -31.11889652 26.93540938 -28.8515625 30.03515625 C-28.21524182 33.18591666 -28.24217445 36.26699403 -28.2890625 39.47265625 C-28.35377018 45.90858156 -28.27898451 50.09901789 -23.8515625 55.03515625 C-20.68229686 55.5368504 -20.68229686 55.5368504 -17.8515625 55.03515625 C-14.99261769 48.73169963 -14.52325206 41.95737763 -16.76171875 35.34765625 C-19.23657967 30.25469488 -22.36098349 25.56945788 -25.6171875 20.9453125 C-28.18050058 16.97866663 -28.64471547 12.63183825 -27.8515625 8.03515625 C-25.7265625 5.28515625 -25.7265625 5.28515625 -22.8515625 3.03515625 C-22.0471875 2.27203125 -21.2428125 1.50890625 -20.4140625 0.72265625 C-13.96951487 -2.3300242 -6.74502986 -2.28222243 0 0 Z" fill="#ACEED0" transform="translate(286.8515625,203.96484375)"/>
  <path d="M0 0 C0 6.6 0 13.2 0 20 C-2.454375 20.37125 -4.90875 20.7425 -7.4375 21.125 C-31.66485545 25.22801988 -53.99175846 37.15968069 -69 57 C-75.14103237 65.74950897 -79.58923378 74.91900601 -83 85 C-83.41507813 86.22074219 -83.83015625 87.44148438 -84.2578125 88.69921875 C-91.05018657 111.80754034 -86.96132527 136.07734947 -76.3359375 157.328125 C-72.53899017 164.08981202 -68.09369462 170.16113562 -63 176 C-62.47019531 176.61359375 -61.94039062 177.2271875 -61.39453125 177.859375 C-45.16423579 195.33198937 -22.72287965 202.21285339 0 206 C0 212.27 0 218.54 0 225 C-30.84983612 224.004844 -57.90189286 210.27275955 -79.11328125 188.19140625 C-91.32781511 175.00100009 -99.178953 158.16584917 -104 141 C-104.3196875 139.89140625 -104.639375 138.7828125 -104.96875 137.640625 C-112.12898316 108.3367078 -105.41467678 78.26940267 -90.375 52.74609375 C-87.08776904 47.40026162 -83.13131278 42.71585799 -79 38 C-78.03900391 36.74896484 -78.03900391 36.74896484 -77.05859375 35.47265625 C-59.86994644 14.82670986 -26.84626521 0 0 0 Z" fill="#ADEDD1" transform="translate(245,137)"/>
  <path d="M0 0 C2.84892226 0.03890335 5.65804664 0.14398584 8.5 0.3125 C9.31774902 0.35882568 10.13549805 0.40515137 10.97802734 0.45288086 C16.49631675 0.80512379 21.65867292 1.51629803 27 3 C27 3.33 27 3.66 27 4 C22.76011815 4.08479764 18.79698675 4.16234915 14.625 3.3125 C13.75875 3.209375 12.8925 3.10625 12 3 C10.35405861 4.39588754 10.35405861 4.39588754 9 6 C7.68 6 6.36 6 5 6 C4.67 7.65 4.34 9.3 4 11 C3.34 11 2.68 11 2 11 C1.67 14.96 1.34 18.92 1 23 C5.62 23 10.24 23 15 23 C15 23.66 15 24.32 15 25 C10.05 25 5.1 25 0 25 C-0.19373189 21.02104506 -0.38028506 17.04198423 -0.5625 13.0625 C-0.61857422 11.92619141 -0.67464844 10.78988281 -0.73242188 9.61914062 C-0.78076172 8.53955078 -0.82910156 7.45996094 -0.87890625 6.34765625 C-0.9260376 5.34742432 -0.97316895 4.34719238 -1.02172852 3.31665039 C-1 1 -1 1 0 0 Z" fill="#899049" transform="translate(245,132)"/>
  <!-- Additional paths removed for brevity -->
</svg>
